# xmcd CD database file
#
# Track frame offsets:
#	150
#	12819
#	30708
#	46092
#	59661
#	72963
#	89603
#	107316
#	122075
#	135948
#
# Disc length: 2022 seconds
#
# Revision: 0
# Processed by: cddbd v1.5.2PL0 Copyright (c) Steve Scherf et al.
# Submitted via: CDex 1.51
#
DISCID=7c07e40a
DTITLE=Amanda Cevallos - I'll Never Honky Tonk You
DYEAR=2013
DGENRE=Country
TTITLE0=I'll Never Honky Tonk You
TTITLE1=Jose Guadalupe
TTITLE2=Good For Nothin' But Each Other
TTITLE3=Texas Hold Him
TTITLE4=I Think I'm Goin' Crazy
TTITLE5=Smithville
TTITLE6=Ready For The Times To Get Better
TTITLE7=He Won't Stop Leavin' Me Alone
TTITLE8=Read My Hips Swayin' Goodbye
TTITLE9=Gonna Lose Me
EXTD=YEAR: 2013
EXTT0=
EXTT1=
EXTT2=
EXTT3=
EXTT4=
EXTT5=
EXTT6=
EXTT7=
EXTT8=
EXTT9=
PLAYORDER=
